<?xml version="1.0" standalone="no"?>
<svg xmlns="http://www.w3.org/2000/svg" viewBox="0 0 96.656 111.608" width="96.656" height="111.608"><polygon fill="#362706" points="96.656,27.902 96.656,83.706 48.328,111.608 0,83.706 0,27.902 48.328,0"></polygon><g fill="white" color="white" transform="translate(34.481846153846156 22.5) scale(0.7692308)"><svg width="36.0" height="52.0" x="0.0" y="0.0" viewBox="0 0 36 52"><path fill="currentColor" fill-rule="evenodd" d="M31.113 26.433c-.346.174-.694.087-.867-.26L18.2 5.2l.78-1.3c3.813 6.587 12.393 21.493 12.48 21.667.086.346 0 .693-.347.866zm-2.6 0c-.606.347-.954-.433-1.04-.52-1.906-3.293-6.414-11.093-9.36-16.206l.78-1.3 9.447 16.38s.346.606.433.78c.173.346.086.693-.26.866zm-2.687 12.74c-1.733 3.034-4.94 4.68-8.233 4.68s-6.414-1.646-8.234-4.68c-1.733-2.946-1.646-6.413-.086-9.186.086-.174.173-.347 1.994-3.38l6.326-11.094 6.326 11.094c1.734 3.033 1.821 3.206 1.994 3.38 1.473 2.773 1.56 6.24-.087 9.186zm-6.847-26.086c2.428 4.16 5.2 9.013 6.761 11.7 0 0 .346.52.433.78.173.346.086.693-.26.866-.26.174-.52.087-.78-.086l-.087-.087-.087-.26-6.673-11.613.693-1.3zm-1.386.173L10.226 26l-.087.173c0 .087-.086.087-.086.087-.174.173-.52.26-.78.087-.347-.174-.434-.607-.26-.867.087-.173.433-.78.433-.78 1.907-3.293 5.547-9.533 8.147-14.127l.78 1.3-.78 1.387zM6.673 26.433c-.347-.173-.434-.606-.26-.866.087-.174.433-.78.433-.78L17.593 6.153l.78 1.3c-.26.434-.433.78-.78 1.3-2.947 5.027-7.887 13.607-9.88 17.16-.087.087-.434.867-1.04.52zm-1.734-.26c-.172.347-.606.434-.866.26-.347-.173-.434-.606-.26-.866.087-.174 11.354-19.674 13.78-23.92.174.346.433.78.78 1.3l-.78 1.3L4.939 26.173zm29.554 3.814a15.146 15.146 0 0 0-1.04-2.774c-.346-.866-2.253-3.986-15.427-26.866 0-.26-.26-.347-.433-.347-.174 0-.434.087-.52.26C3.9 23.14 1.993 26.26 1.646 27.127c-.346.866-.78 1.82-1.04 2.773-1.127 4.247-.693 8.667 1.387 12.567.086.26.26.433.346.693C5.633 48.88 11.526 52 17.593 52c6.066 0 11.96-3.12 15.166-8.753.174-.26.26-.434.348-.694 2.079-3.9 2.6-8.32 1.386-12.566z"></path></svg></g><path fill="white" fill-rule="nonzero" d="M8.33 3.40L8.33 18.61Q7.67 18.53 4.95 18.53L4.95 18.53L4.51 18.53L4.51 3.40L1.80 3.40Q0.60 3.40 0.38 3.53Q0.16 3.65 0.04 3.75L0.04 3.75L0 3.73L0 0.23L0.04 0.19Q0.49 0.34 2.47 0.34L2.47 0.34L11.05 0.34Q12.25 0.34 12.47 0.22Q12.69 0.10 12.81 0L12.81 0L12.85 0.01L12.85 3.51L12.81 3.55Q12.36 3.40 10.38 3.40L10.38 3.40L8.33 3.40ZM22.33 18.54L22.30 18.58Q21.89 18.53 20.90 18.53L20.90 18.53L19.32 18.53Q18.85 18.53 18.55 18.55L18.55 18.55L18.54 18.53Q18.59 18.43 18.59 18.31Q18.59 18.18 18.57 18.05Q18.55 17.91 18.46 17.55Q18.38 17.20 18.20 16.53L18.20 16.53L13.55 0.29Q14.42 0.34 15.67 0.34Q16.91 0.34 17.28 0.23L17.28 0.23L20.51 12.61L23.65 0.29Q23.86 0.30 24.02 0.31L24.02 0.31L24.32 0.31Q24.77 0.34 25.46 0.34Q26.14 0.34 26.87 0.23L26.87 0.23L30.06 12.61L32.81 0.29Q33.63 0.34 34.96 0.34Q36.29 0.34 36.57 0.23L36.57 0.23L32.63 14.66Q31.88 17.14 31.84 17.61Q31.80 18.07 31.80 18.25Q31.80 18.43 31.86 18.54L31.86 18.54L31.83 18.58Q31.39 18.53 30.45 18.53L30.45 18.53Q29.63 18.53 28.96 18.53Q28.29 18.53 27.99 18.55L27.99 18.55L27.97 18.53Q28.03 18.43 28.03 18.31Q28.03 18.18 28.01 18.06Q28 17.94 27.94 17.59Q27.88 17.24 27.74 16.56L27.74 16.56L27.37 14.70L25.13 6.18L23.00 14.66Q22.34 17.27 22.31 17.66L22.31 17.66Q22.26 18.42 22.33 18.54L22.33 18.54Z" transform="translate(30.042, 70.5)"></path></svg>